<svg xmlns="http://www.w3.org/2000/svg" viewBox="0 0 1600 900" fill="none">
  <g stroke="#f8fafc" stroke-opacity="0.22" stroke-width="2.4" stroke-linecap="round" stroke-linejoin="round">
    <path d="M120 170 C 260 130 380 230 520 190 C 700 140 860 90 1040 130 C 1210 168 1350 252 1480 220"/>
    <path d="M120 300 C 260 260 380 360 520 320 C 700 270 860 220 1040 260 C 1210 298 1350 382 1480 350"/>
    <path d="M120 420 C 300 380 520 500 760 450 C 980 404 1210 520 1480 468"/>
    <path d="M120 545 C 220 520 320 490 410 526 C 500 562 590 562 680 526 C 770 490 860 490 950 526 C 1040 562 1130 562 1220 526 C 1310 490 1400 490 1480 530"/>
    <path d="M120 680 C 260 650 420 585 560 642 C 700 702 820 812 980 822 C 1160 832 1300 748 1480 770"/>
  </g>
</svg>
